<svg width="253" height="254" viewBox="0 0 253 254" fill="none" xmlns="http://www.w3.org/2000/svg">
<rect x="116.321" width="19.3869" height="48.4672" rx="9.69343" fill="#62F6B5"/>
<rect x="159.701" y="249.694" width="19.3869" height="48.4672" rx="9.69343" transform="rotate(169.751 159.701 249.694)" fill="#62F6B5"/>
<rect x="111.96" y="253.445" width="19.3869" height="48.4672" rx="9.69343" transform="rotate(-167.962 111.96 253.445)" fill="#62F6B5"/>
<rect x="67.5664" y="239.486" width="19.3869" height="48.4672" rx="9.69343" transform="rotate(-148.706 67.5664 239.486)" fill="#62F6B5"/>
<rect x="30.5898" y="210.516" width="19.3869" height="48.4672" rx="9.69343" transform="rotate(-126.715 30.5898 210.516)" fill="#62F6B5"/>
<rect x="7.01025" y="170.254" width="19.3869" height="48.4672" rx="9.69343" transform="rotate(-104.978 7.01025 170.254)" fill="#62F6B5"/>
<rect x="251.959" y="106.627" width="19.3869" height="48.4672" rx="9.69343" transform="rotate(86.9228 251.959 106.627)" fill="#62F6B5"/>
<rect x="235.614" y="62" width="19.3869" height="48.4672" rx="9.69343" transform="rotate(64.1404 235.614 62)" fill="#62F6B5"/>
<rect x="201.314" y="228.943" width="19.3869" height="48.4672" rx="9.69343" transform="rotate(147.647 201.314 228.943)" fill="#62F6B5"/>
<rect x="203.875" y="26.4487" width="19.3869" height="48.4672" rx="9.69343" transform="rotate(41.7049 203.875 26.4487)" fill="#62F6B5"/>
<rect x="233.27" y="195.46" width="19.3869" height="48.4672" rx="9.69343" transform="rotate(127.434 233.27 195.46)" fill="#62F6B5"/>
<rect x="161.978" y="4.84668" width="19.3869" height="48.4672" rx="9.69343" transform="rotate(20 161.978 4.84668)" fill="#62F6B5"/>
<rect x="250.969" y="152.684" width="19.3869" height="48.4672" rx="9.69343" transform="rotate(106.4 250.969 152.684)" fill="#62F6B5"/>
<rect y="124.261" width="19.3869" height="48.4672" rx="9.69343" transform="rotate(-83.4598 0 124.261)" fill="#62F6B5"/>
<rect x="10" y="79.1692" width="19.3869" height="48.4672" rx="9.69343" transform="rotate(-62.3269 10 79.1692)" fill="#62F6B5"/>
<rect x="34.4307" y="40.4844" width="19.3869" height="48.4672" rx="9.69343" transform="rotate(-42.4044 34.4307 40.4844)" fill="#62F6B5"/>
<rect x="72.7007" y="11.7666" width="19.3869" height="48.4672" rx="9.69343" transform="rotate(-20.91 72.7007 11.7666)" fill="#62F6B5"/>
</svg>
